<svg height="350pt" preserveAspectRatio="xMidYMid meet" viewBox="0 0 350 350" width="350pt" xmlns="http://www.w3.org/2000/svg"><path d="m0 1750v-1750h1750 1750v1750 1750h-1750-1750zm1595 1154c49-17 129-88 141-126 5-16 10-12 34 24 53 80 129 118 234 118 194 0 311-184 247-389-30-98-72-151-269-339-102-97-198-194-213-215l-28-38-15 28c-8 16-102 113-209 216-108 103-210 210-227 237-117 183-81 393 82 474 62 31 149 35 223 10zm235-1239v-195h355 355v-270-270h210 210v-280-280h-85-85v195 195h-330-330v-195-195h-85-85v280 280h205 205v180 180h-630-630v-180-180h210 210v-280-280h-90-90v195 195h-325-325v-195-195h-85-85v280 280h205 205v270 270h360 360v195 195h85 85z" transform="matrix(.1 0 0 -.1 0 350)"/></svg>