<?xml version="1.0" standalone="no"?>
<!DOCTYPE svg PUBLIC "-//W3C//DTD SVG 20010904//EN"
 "http://www.w3.org/TR/2001/REC-SVG-20010904/DTD/svg10.dtd">
<svg version="1.0" xmlns="http://www.w3.org/2000/svg"
 width="350.000000pt" height="350.000000pt" viewBox="0 0 350.000000 350.000000"
 preserveAspectRatio="xMidYMid meet">
<metadata>
Created by potrace 1.16, written by Peter Selinger 2001-2019
</metadata>
<g transform="translate(0.000000,350.000000) scale(0.100000,-0.100000)"
fill="#000000" stroke="none">
<path d="M0 1750 l0 -1750 1750 0 1750 0 0 1750 0 1750 -1750 0 -1750 0 0
-1750z m1595 1154 c49 -17 129 -88 141 -126 5 -16 10 -12 34 24 53 80 129 118
234 118 194 0 311 -184 247 -389 -30 -98 -72 -151 -269 -339 -102 -97 -198
-194 -213 -215 l-28 -38 -15 28 c-8 16 -102 113 -209 216 -108 103 -210 210
-227 237 -117 183 -81 393 82 474 62 31 149 35 223 10z m235 -1239 l0 -195
355 0 355 0 0 -270 0 -270 210 0 210 0 0 -280 0 -280 -85 0 -85 0 0 195 0 195
-330 0 -330 0 0 -195 0 -195 -85 0 -85 0 0 280 0 280 205 0 205 0 0 180 0 180
-630 0 -630 0 0 -180 0 -180 210 0 210 0 0 -280 0 -280 -90 0 -90 0 0 195 0
195 -325 0 -325 0 0 -195 0 -195 -85 0 -85 0 0 280 0 280 205 0 205 0 0 270 0
270 360 0 360 0 0 195 0 195 85 0 85 0 0 -195z"/>
</g>
</svg>
